<svg width="1200" height="600" viewBox="0 0 1200 600" fill="none" xmlns="http://www.w3.org/2000/svg">
  <rect width="1200" height="600" rx="32" fill="#07131F"/>
  <rect x="40" y="40" width="1120" height="520" rx="28" fill="url(#bg)"/>
  <rect x="86" y="90" width="360" height="140" rx="20" fill="#0F2436" stroke="#2ECF8B" stroke-opacity="0.4"/>
  <rect x="86" y="258" width="360" height="230" rx="20" fill="#0F2436" stroke="#3B82F6" stroke-opacity="0.35"/>
  <rect x="478" y="90" width="636" height="398" rx="24" fill="#0B1D2B" stroke="#7DD3FC" stroke-opacity="0.25"/>
  <rect x="520" y="134" width="220" height="18" rx="9" fill="#2ECF8B" fill-opacity="0.85"/>
  <rect x="520" y="172" width="280" height="12" rx="6" fill="#D6F7EA" fill-opacity="0.8"/>
  <rect x="520" y="206" width="206" height="12" rx="6" fill="#D6F7EA" fill-opacity="0.6"/>
  <rect x="520" y="260" width="110" height="80" rx="10" fill="#14532D"/>
  <rect x="650" y="260" width="110" height="80" rx="10" fill="#1D4ED8"/>
  <rect x="780" y="260" width="110" height="80" rx="10" fill="#0F766E"/>
  <rect x="520" y="366" width="360" height="80" rx="12" fill="#0F2436"/>
  <rect x="534" y="384" width="90" height="10" rx="5" fill="#7DD3FC"/>
  <rect x="534" y="410" width="150" height="10" rx="5" fill="#7DD3FC" fill-opacity="0.6"/>
  <circle cx="182" cy="142" r="44" fill="#2ECF8B" fill-opacity="0.16"/>
  <path d="M182 110C195.255 110 206 120.745 206 134C206 147.255 195.255 158 182 158C168.745 158 158 147.255 158 134C158 120.745 168.745 110 182 110Z" fill="#2ECF8B"/>
  <path d="M158 302H206V334H158V302Z" fill="#60A5FA"/>
  <path d="M158 344H206V376H158V344Z" fill="#38BDF8"/>
  <path d="M152 410C170.778 376.833 196.182 375.958 214 410" stroke="#F59E0B" stroke-width="12" stroke-linecap="round"/>
  <circle cx="182" cy="388" r="28" fill="#FBBF24" fill-opacity="0.2"/>
  <path d="M900 440C900 403.026 929.026 374 966 374H1015V506H966C929.026 506 900 476.974 900 440Z" fill="#34D399" fill-opacity="0.95"/>
  <path d="M1015 374H1064C1100.97 374 1130 403.026 1130 440C1130 476.974 1100.97 506 1064 506H1015V374Z" fill="#2563EB" fill-opacity="0.95"/>
  <rect x="120" y="444" width="140" height="16" rx="8" fill="#D6F7EA" fill-opacity="0.8"/>
  <rect x="120" y="474" width="220" height="12" rx="6" fill="#D6F7EA" fill-opacity="0.5"/>
  <text x="88" y="72" fill="#E2F8EE" font-family="Segoe UI, Arial, sans-serif" font-size="24" font-weight="700">EcoLogística Dashboard</text>
  <text x="88" y="518" fill="#B9EFD8" font-family="Segoe UI, Arial, sans-serif" font-size="20" font-weight="500">Análise financeira • Performance • Simulação</text>
  <defs>
    <linearGradient id="bg" x1="84" y1="64" x2="1116" y2="560" gradientUnits="userSpaceOnUse">
      <stop offset="0" stop-color="#0A1F2E"/>
      <stop offset="1" stop-color="#0D2C3F"/>
    </linearGradient>
  </defs>
</svg>
